<svg width="169" height="54" viewBox="0 0 169 54" fill="none" xmlns="http://www.w3.org/2000/svg">
<path d="M0 0V54H21.104C29.2176 54 36.0011 51.4864 40.7246 46.797C42.4056 45.1281 43.8018 43.178 44.9226 41.0011V54H46.1885C62.4186 54 78.6488 54 94.8789 54V29.3253L111.874 54C120.928 54 129.981 54 139.035 54V37.0121H141.844L150.907 54H169L158.057 33.9364C163.218 30.9557 166.424 25.752 166.424 18.7553C166.424 12.9816 164.359 8.21217 160.732 4.9616C157.106 1.71103 151.995 0 146.027 0C133.672 0 121.317 0 108.961 0V24.6895L92.1692 0H78.3488V40.2112H61.4478V0H44.9226V13.0137C43.7961 10.8302 42.3897 8.87609 40.6949 7.20296C35.9446 2.51339 29.1123 0 20.9013 0H0Z" fill="#231F20"/>
</svg>
