<svg viewBox="0 0 112.44792 131.89066" xmlns="http://www.w3.org/2000/svg">
	<style>
		#logo {
			fill: #EAE9EA;
		}
    	@media (prefers-color-scheme: light) {
			#logo {
				fill: #231F20;
			}
		}
	</style>
	<g>
		<path id="logo" d="m202.564 427.924-.199 229.242v229.242h70.205v-104.75l72.178 104.75h115.356v-72.115h11.927l38.494 72.115h76.84l-46.474-85.174c21.917-12.654 35.533-34.744 35.533-64.447 0-24.51-8.768-44.758-24.172-58.558-4.994-4.474-10.71-8.183-16.938-11.258v-68.34h-71.779V427.924h-70.181v55.246c-4.785-9.27-10.76-17.565-17.958-24.668-20.174-19.908-49.192-30.578-84.064-30.578zm58.577 229.355 71.238.139v104.56z" transform="matrix(.26458 0 0 .26458 -48.25 -107.93)"/>
	</g>
</svg>
